# xmcd
#
# Track frame offsets:
#	150
#	26081
#	41580
#	63892
#	81644
#	108672
#	122700
#	147499
#	164464
#	181617
#	197454
#	218670
#	230868
#	257700
#	263363
#	281849
#	300679
# Disc length: 4386 seconds
# Revision: 1
# Processed by: cddbd v1.5.1PL2 Copyright (c) Steve Scherf et al.
#
# Submitted via: libkcddb 0.21
#
DISCID=f8112011
DTITLE=Joan Isaac - Només han passat cinquanta anys
DYEAR=2004
DGENRE=Chanson
TTITLE0=Només han passat cinquanta anys
TTITLE1=Sara
TTITLE2=Roberto Vecchioni - Viola d'inverno
TTITLE3=Alicia i el mirall
TTITLE4=Moncho - On és la gent...?
TTITLE5=Després d'aquest cafè
TTITLE6=Mauro Pagani - Domani
TTITLE7=Gràcies, vida, gràcies
TTITLE8=Però prefereixo els teus ulls
TTITLE9=Aniversari
TTITLE10=Les cartes d'amor
TTITLE11=Ciao, come stai
TTITLE12=Il momento per lei
TTITLE13=Carta de Salvador Puig Antich
TTITLE14=A Margalida
TTITLE15=Manfred
TTITLE16=Azzurro
EXTD=Directe al TNC 5-6/3/2004
EXTT0=
EXTT1=
EXTT2=Canta Roberto Vecchioni
EXTT3=
EXTT4=Canta Moncho
EXTT5=Amb Manel Camp al piano
EXTT6=Canta Mauro Pagani
EXTT7=
EXTT8=
EXTT9=
EXTT10=Duet amb Roberto Vecchioni en català
EXTT11=Duet amb Mone
EXTT12=Duet amb Mauro Pagani
EXTT13=Recitat de la darrera carta de Puig Antich a Margalida
EXTT14=
EXTT15=
EXTT16=Amb cor de veus
PLAYORDER=
